<svg width="2328" height="576" viewBox="0 0 2328 576" fill="none" xmlns="http://www.w3.org/2000/svg">
<path d="M531.568 1.09196C529.434 2.42529 529.168 5.49196 529.168 32.8253C529.168 54.692 529.568 63.6253 530.768 64.8253C531.968 66.0253 539.968 66.4253 558.768 66.4253C583.434 66.4253 585.168 66.292 586.501 63.892C588.234 60.5586 588.234 5.22529 586.501 2.42529C585.434 0.82529 580.634 0.42529 559.568 0.0252895C543.168 -0.108044 533.034 0.291956 531.568 1.09196Z" fill="white"/>
<path d="M1177.57 1.22525C1175.17 2.15858 1174.5 3.35858 1174.5 7.35858C1174.37 10.1586 1174.23 136.292 1174.1 287.625C1173.83 560.159 1173.83 562.692 1176.5 564.559C1180.5 567.359 1221.57 567.225 1224.37 564.292C1226.23 562.559 1226.5 545.759 1226.37 408.292V254.292L1229.7 246.025C1235.97 230.425 1241.57 222.559 1250.77 216.425C1253.97 214.425 1257.97 211.625 1259.83 210.425C1261.7 209.225 1267.7 206.825 1273.17 204.959C1282.5 202.025 1285.03 201.759 1311.83 201.759C1338.77 201.759 1341.03 202.025 1349.83 205.092C1361.83 209.225 1367.17 212.292 1374.23 218.959C1379.57 224.025 1389.17 237.092 1389.17 239.492C1389.17 240.025 1389.97 242.025 1391.03 243.892C1391.97 245.759 1393.17 249.092 1393.7 251.225C1394.37 253.359 1394.77 324.025 1394.63 408.292C1394.5 548.959 1394.63 561.759 1396.77 564.025C1398.63 566.159 1401.3 566.425 1421.3 566.425C1439.7 566.425 1443.97 566.025 1445.7 564.292C1447.57 562.425 1447.7 546.425 1447.43 410.692C1447.17 271.492 1446.9 258.425 1444.77 251.359C1443.57 247.092 1442.5 242.425 1442.5 240.959C1442.5 238.425 1438.77 228.692 1435.57 223.092C1434.77 221.625 1432.5 217.625 1430.77 214.159C1425.7 204.425 1407.83 183.759 1399.03 177.359C1387.03 168.559 1375.17 162.692 1359.83 157.492C1341.97 151.492 1295.83 151.892 1278.5 158.159C1262.1 164.025 1250.1 171.092 1238.1 181.359C1233.97 184.959 1229.57 187.759 1228.5 187.492C1226.63 187.092 1226.37 176.559 1225.83 95.2253C1225.43 30.0252 1224.9 2.95858 1223.83 1.89191C1222.1 0.15858 1182.1 -0.508086 1177.57 1.22525Z" fill="white"/>
<path d="M1748.37 36.6919C1747.7 39.2253 1743.17 49.0919 1740.77 53.7586C1737.97 58.8253 1718.77 96.8253 1690.5 152.425C1674.9 183.225 1655.83 220.692 1648.1 235.759C1620.5 289.892 1621.3 288.292 1622.77 290.025C1623.83 291.359 1649.7 291.759 1750.37 291.759C1823.43 291.759 1877.3 291.225 1878.37 290.559C1879.97 289.492 1879.17 287.092 1873.97 276.825C1870.37 270.025 1866.63 262.559 1865.43 260.425C1864.37 258.159 1862.9 255.492 1862.23 254.425C1861.7 253.359 1860.5 250.959 1859.83 249.092C1859.03 247.225 1857.83 244.559 1856.9 243.092C1855.97 241.625 1845.57 221.225 1833.7 197.759C1821.97 174.292 1804.23 139.492 1794.5 120.425C1760.1 53.2253 1753.17 39.0919 1753.17 36.6919C1753.17 35.4919 1752.23 34.4253 1751.17 34.4253C1749.97 34.4253 1748.77 35.4919 1748.37 36.6919Z" fill="white"/>
<path d="M125.834 153.892C100.101 156.825 76.9011 168.425 55.5677 189.359C50.5011 194.425 45.3011 198.425 44.1011 198.425C42.6344 198.425 38.1011 192.959 31.9677 183.359C19.1677 164.025 15.1677 159.759 9.83439 159.759C7.56772 159.759 4.50106 160.559 3.03439 161.625C0.501057 163.492 0.501057 167.359 0.101057 363.359C-0.16561 550.159 -0.0322768 563.225 2.10106 564.692C5.30106 567.092 47.1677 567.092 48.7677 564.692C49.3011 563.892 50.1011 493.759 50.5011 409.092C51.1677 258.959 51.3011 254.959 53.9677 247.492C55.4344 243.225 57.1677 239.359 57.7011 238.825C58.2344 238.292 59.5677 235.892 60.5011 233.759C65.0344 223.092 80.9011 210.825 97.8344 204.692C105.034 202.159 108.501 201.892 132.501 201.892C156.768 201.892 159.968 202.159 167.834 204.959C177.968 208.559 183.834 211.892 191.168 218.159C197.701 223.892 207.834 238.025 207.834 241.359C207.834 242.825 208.901 245.759 210.234 248.159C212.368 252.159 212.501 262.692 212.901 407.625C213.168 517.625 213.701 563.359 214.768 564.692C216.768 567.092 258.368 567.225 261.568 564.692C263.568 563.225 263.834 551.625 263.968 417.092C263.968 336.825 264.634 266.025 265.301 259.759C268.368 229.625 289.834 208.025 322.501 202.159C334.234 200.159 372.901 201.492 377.834 204.159C380.101 205.359 382.901 206.425 384.368 206.425C388.501 206.425 400.101 213.892 406.768 220.692C410.101 224.159 415.168 231.225 417.968 236.292C426.368 251.759 426.368 251.492 426.501 416.425C426.501 552.425 426.634 563.225 428.768 564.692C431.968 567.092 471.701 567.092 474.901 564.692C477.034 563.225 477.168 553.225 476.901 408.425C476.501 261.225 476.368 253.359 473.968 246.425C465.834 222.559 460.101 211.759 447.034 195.359C437.301 183.225 426.234 174.292 410.101 166.025C396.901 159.092 387.701 156.159 373.168 154.292C360.234 152.425 333.168 153.625 328.234 156.159C326.234 157.225 322.368 158.425 319.834 158.959C313.568 160.025 290.101 172.025 281.834 178.292C272.901 185.092 259.301 198.825 254.368 205.892C252.101 209.225 249.301 211.759 247.968 211.759C246.501 211.759 243.568 208.692 240.501 204.025C225.834 182.025 203.834 166.425 173.834 157.092C164.501 154.159 138.901 152.559 125.834 153.892Z" fill="white"/>
<path d="M749.168 155.092C732.901 158.959 729.568 160.025 723.835 162.692C713.435 167.625 698.235 178.692 687.035 189.359C681.035 195.092 675.701 199.759 674.901 199.759C673.701 199.759 661.835 182.159 653.835 168.692C648.235 159.092 638.501 156.559 633.301 163.225L630.501 166.825V364.292C630.501 486.159 631.035 562.559 631.835 563.759C632.768 565.359 637.301 565.892 655.035 566.159C669.301 566.425 677.968 566.025 679.701 565.092L682.501 563.625V414.025C682.501 267.892 682.635 264.292 685.168 258.559C686.635 255.359 687.835 252.159 687.835 251.225C687.835 246.159 703.301 225.625 709.701 222.159C725.035 213.759 727.968 212.692 739.701 210.959C746.635 209.892 762.101 209.092 774.501 209.092C794.368 209.092 797.035 208.825 798.901 206.692C800.901 204.559 801.168 200.692 801.168 180.692C801.168 151.225 802.901 153.092 775.835 153.225C764.768 153.225 753.435 154.025 749.168 155.092Z" fill="white"/>
<path d="M941.834 156.959C907.701 167.625 878.634 190.825 865.301 218.025C862.901 222.959 860.101 228.559 859.168 230.425C858.234 232.292 857.034 236.425 856.501 239.625C855.968 242.825 854.634 247.492 853.701 249.892C852.101 253.625 851.834 273.492 851.568 362.692C851.434 460.692 851.701 471.625 853.568 476.292C854.901 479.092 855.834 482.559 855.834 484.025C855.834 494.425 875.034 527.225 889.701 541.892C903.968 556.159 926.901 569.092 941.568 571.225C944.634 571.625 950.234 572.959 953.834 574.025C963.568 576.825 1011.03 576.559 1024.1 573.625C1036.9 570.825 1047.83 566.559 1057.83 560.425C1060.77 558.692 1065.03 556.292 1067.17 554.959C1087.3 543.492 1108.77 517.092 1117.03 493.759C1122.5 478.292 1125.97 443.892 1122.37 440.559C1119.3 437.759 1112.1 435.759 1097.17 433.625C1089.43 432.559 1081.3 431.359 1079.03 430.959C1073.43 429.892 1073.03 431.225 1072.37 454.159C1072.1 467.625 1071.3 474.292 1069.83 477.092C1068.77 479.225 1067.83 482.025 1067.83 483.225C1067.83 487.492 1057.3 503.492 1050.5 509.359C1035.03 522.959 1018.9 527.759 988.901 527.759C947.301 527.759 923.034 516.159 910.234 490.292C907.568 484.825 905.168 479.359 904.768 478.159C904.368 476.959 903.834 425.625 903.701 364.159L903.434 252.292L908.234 241.892C910.901 236.292 915.434 228.825 918.101 225.492C923.568 218.692 941.301 206.425 945.434 206.425C946.768 206.425 949.834 205.359 952.234 204.159C955.968 202.025 960.501 201.759 987.834 201.892C1014.63 201.892 1019.83 202.292 1023.43 204.159C1025.83 205.359 1028.9 206.425 1030.5 206.425C1038.63 206.425 1057.3 222.292 1063.83 234.559C1070.23 247.092 1072.1 255.492 1072.63 275.625C1073.03 289.225 1073.57 295.225 1074.77 296.025C1076.9 297.359 1089.03 296.159 1097.7 293.625C1101.3 292.559 1107.17 291.759 1110.63 291.759C1115.43 291.759 1117.97 290.959 1120.77 288.559C1124.1 285.625 1124.37 284.825 1124.1 276.292C1122.9 241.759 1115.03 220.959 1092.23 192.825C1082.9 181.359 1074.5 174.959 1056.5 166.025C1031.3 153.492 1033.43 153.892 991.168 153.492L953.834 153.225L941.834 156.959Z" fill="white"/>
<path d="M2177.17 154.425C2173.83 154.959 2169.43 156.159 2167.43 156.959C2165.3 157.759 2162.23 158.425 2160.5 158.425C2152.37 158.425 2125.43 175.225 2112.1 188.692C2106.77 194.159 2101.3 198.425 2099.83 198.425C2097.97 198.425 2093.97 193.492 2085.97 181.225C2079.7 171.759 2073.3 163.092 2071.57 161.892C2067.57 159.092 2062.1 159.225 2058.37 162.292L2055.17 164.825V363.759C2055.17 559.092 2055.17 562.692 2057.7 564.559C2061.3 567.092 2100.9 567.225 2104.23 564.692C2106.23 563.225 2106.5 551.359 2106.77 407.759C2107.17 236.292 2106.37 253.225 2114.9 236.159C2121.03 223.892 2138.37 208.692 2148.37 206.825C2150.63 206.425 2153.97 205.225 2155.7 204.159C2159.57 201.625 2207.03 200.159 2219.17 202.159C2235.43 204.825 2247.3 210.692 2257.43 221.359C2265.17 229.492 2273.57 244.292 2275.03 253.092C2275.57 255.625 2275.83 326.292 2275.83 410.025V562.292L2278.77 564.292C2281.17 566.025 2285.83 566.425 2302.23 566.425C2313.83 566.425 2323.83 565.759 2325.3 565.092C2327.83 563.759 2327.83 560.692 2327.7 413.359C2327.7 330.692 2327.17 260.025 2326.5 256.425C2324.23 243.359 2321.57 233.625 2318.23 227.092C2316.37 223.359 2313.83 218.292 2312.5 215.759C2309.83 210.559 2301.7 199.359 2294.37 190.825C2283.57 178.159 2259.97 163.492 2239.83 157.092C2232.77 154.692 2226.9 154.159 2207.17 153.759C2193.97 153.492 2180.5 153.759 2177.17 154.425Z" fill="white"/>
<path d="M535.834 161.092C534.101 162.159 533.701 186.425 533.168 361.359C532.634 521.092 532.901 560.959 534.234 563.359C535.834 566.292 536.501 566.425 557.034 566.425C568.768 566.425 579.168 566.025 580.368 565.625C582.368 564.825 582.501 545.892 582.501 364.825C582.501 229.625 582.101 164.025 581.168 162.292C579.834 159.892 578.101 159.759 558.768 159.759C547.301 159.759 536.901 160.425 535.834 161.092Z" fill="white"/>
<path d="M1588.77 355.492C1586.77 357.492 1585.17 360.159 1585.17 361.359C1585.17 362.425 1583.97 364.959 1582.5 366.825C1581.03 368.692 1579.83 370.559 1579.83 371.092C1579.83 371.625 1574.63 382.692 1568.37 395.625C1555.03 422.559 1532.63 468.559 1516.23 502.425C1509.97 515.225 1504.37 526.692 1503.7 527.759C1500.5 533.092 1499.57 535.759 1500.23 537.625C1501.03 539.492 1516.37 539.759 1652.23 539.759C1774.63 539.759 1803.83 539.492 1804.9 538.025C1806.37 536.292 1806.23 535.892 1772.37 484.425C1765.03 473.359 1758.77 463.492 1758.37 462.425C1757.83 461.359 1753.03 453.759 1747.7 445.625C1742.23 437.625 1733.97 424.825 1729.17 417.359C1724.37 409.759 1718.63 400.825 1716.23 397.359C1713.97 393.892 1710.1 388.025 1707.83 384.425C1705.57 380.692 1701.3 374.159 1698.5 369.759C1695.57 365.359 1691.97 359.492 1690.5 356.692L1687.83 351.759H1640.1H1592.37L1588.77 355.492Z" fill="white"/>
<path d="M1763.43 354.292C1763.83 355.759 1765.3 357.892 1766.63 359.225C1767.97 360.425 1769.17 362.025 1769.17 362.825C1769.17 363.892 1776.37 375.625 1790.23 396.825C1793.3 401.492 1795.83 405.759 1795.83 406.159C1795.83 406.559 1798.1 410.292 1800.77 414.292C1803.43 418.425 1807.03 423.892 1808.63 426.425C1815.97 438.292 1821.97 447.625 1826.37 454.425C1829.03 458.425 1831.83 463.225 1832.77 465.092C1833.7 466.959 1836.9 472.025 1839.7 476.425C1842.63 480.825 1846.23 486.559 1847.83 489.092C1849.3 491.625 1853.17 497.759 1856.23 502.559C1859.3 507.492 1864.9 516.425 1868.77 522.559C1872.5 528.692 1876.63 535.092 1877.83 536.692L1879.97 539.759H1939.97C1992.63 539.759 1999.97 539.492 2000.77 537.759C2001.3 536.025 1998.9 529.625 1994.37 521.092C1993.7 520.025 1991.43 515.225 1989.03 510.425C1986.77 505.625 1984.37 500.825 1983.7 499.759C1983.03 498.692 1981.83 496.292 1981.03 494.425C1980.23 492.559 1974.9 481.492 1969.17 469.759C1963.43 458.025 1957.17 445.092 1955.17 441.092C1953.3 437.092 1951.17 432.825 1950.5 431.759C1947.3 426.292 1915.83 360.959 1915.83 359.892C1915.83 359.225 1913.97 357.092 1911.7 355.225L1907.57 351.759H1835.17C1764.23 351.759 1762.77 351.759 1763.43 354.292Z" fill="white"/>
</svg>
