<svg width="1496" height="1512" viewBox="0 0 1496 1512" fill="none" xmlns="http://www.w3.org/2000/svg">
<path d="M752.016 3.59998C751.083 5.59998 750.283 10.1333 750.283 13.6C750.283 18.4 749.75 20 748.283 20C747.083 20 746.283 21.2 746.283 23.2C746.283 25.0667 744.683 27.6 742.283 29.4667C740.016 31.3333 738.283 34 738.283 35.6C738.283 37.3333 737.083 39.3333 735.616 40.2667C733.483 41.6 732.95 43.4667 732.95 48.9333C732.95 53.3333 732.416 56 731.483 56C729.083 56 726.416 60.2667 726.283 64.2667C726.283 66.6666 725.616 68 724.283 68C720.55 68 716.95 72.9333 717.75 77.0667C718.283 79.6 717.883 81.6 716.416 83.0667C715.216 84.1333 714.283 86.4 714.283 88C714.283 89.4667 713.216 91.2 712.016 91.6C708.016 93.2 704.816 97.3333 705.616 99.8666C706.016 101.467 705.616 102.667 704.283 103.2C703.216 103.6 702.283 105.467 702.283 107.467C702.283 109.733 701.483 111.2 699.616 111.6C697.616 112.133 696.95 113.467 696.95 117.2C696.95 120.8 696.016 122.933 693.216 125.333C691.083 127.333 689.616 129.867 689.75 131.6C689.883 133.467 688.95 134.933 687.483 135.333C685.616 136 684.95 137.467 684.95 141.467C684.95 145.067 684.283 147.067 682.816 147.6C681.35 148.133 680.95 149.333 681.616 151.6C682.15 153.867 681.75 154.933 680.016 155.6C675.616 157.067 672.95 160.4 672.95 164.267C672.95 166.667 672.283 168 671.083 168C669.616 168 669.35 169.067 669.883 172.4C670.416 176.267 670.016 177.2 665.75 180.533C662.15 183.2 660.95 185.067 660.95 188.133C660.95 191.2 660.416 192 658.15 192C655.75 192 655.616 192.4 656.95 194C658.816 196.133 657.75 198.667 654.816 198.667C653.616 198.667 652.95 200.133 652.95 202.667C652.95 205.067 652.15 207.067 650.95 207.467C649.75 208 648.95 210 648.95 212.133C648.95 215.2 648.416 216 646.15 216C643.75 216 643.616 216.4 644.95 218C646.816 220.133 645.75 222.667 642.816 222.667C641.616 222.667 640.95 224.133 640.95 226.667C640.95 229.067 640.15 231.067 638.95 231.467C637.883 232 636.95 233.733 636.95 235.6C636.95 237.867 636.016 239.2 634.283 239.6C632.283 240.133 631.883 240.8 632.95 242C633.883 243.067 632.95 244.667 629.616 247.467C626.416 250.133 624.95 252.4 624.95 254.933C624.95 257.2 624.016 258.8 622.55 259.2C620.683 259.867 620.283 261.067 620.683 264.667C621.083 268 620.683 269.467 619.083 270.133C617.75 270.667 616.95 272.533 616.95 274.8C616.95 277.333 616.15 279.067 614.683 279.6C610.016 281.2 607.616 284.267 608.416 287.467C608.95 289.733 608.55 290.933 607.083 291.467C605.616 292 604.95 294 604.95 297.2C604.816 301.067 604.016 302.533 600.55 304.8C597.216 306.933 596.416 308.267 596.683 311.067C596.95 313.333 596.283 314.933 594.95 315.467C593.75 316 592.95 318 592.95 320.8C592.95 323.867 592.15 325.867 590.283 326.933C588.816 327.867 587.616 330 587.616 331.6C587.616 333.467 586.816 334.667 585.616 334.667C584.15 334.667 583.883 335.733 584.55 338.667C585.083 341.867 584.816 342.667 583.083 342.667C581.883 342.667 580.55 343.6 580.15 344.667C579.616 345.733 578.55 346.667 577.483 346.667C576.15 346.667 575.616 348.4 575.616 352.667C575.616 357.2 575.083 358.667 573.483 358.667C572.016 358.667 571.616 359.467 572.283 361.467C572.95 363.333 572.15 365.067 569.616 367.467C567.75 369.2 565.616 370.667 564.816 370.667C564.15 370.667 563.616 372.4 563.616 374.533C563.616 376.667 562.816 378.667 561.75 379.067C560.55 379.6 560.15 380.933 560.55 382.533C560.95 384.4 560.55 385.6 559.083 386.133C557.616 386.667 556.95 388.533 556.95 391.867C556.95 395.733 556.016 397.333 552.416 400.267C549.216 402.8 548.016 404.667 548.55 406.533C548.95 408.267 548.283 409.6 546.55 410.533C544.55 411.6 543.883 413.2 544.15 416.667C544.283 420.133 543.75 421.6 542.016 422.133C540.416 422.533 539.616 424.133 539.616 426.8C539.616 428.933 538.95 430.667 538.15 430.667C535.883 430.667 531.75 436.4 531.616 439.6C531.616 441.467 530.816 442.667 529.616 442.667C528.416 442.667 527.616 443.867 527.616 445.867C527.616 447.6 526.683 449.333 525.616 449.867C524.15 450.4 523.75 451.6 524.416 454C525.083 456.8 524.683 457.6 522.416 458.267C520.416 458.8 519.616 460 519.616 462.8C519.616 465.333 518.95 466.667 517.616 466.667C516.416 466.667 515.616 467.867 515.616 469.867C515.616 471.6 514.683 473.333 513.616 473.867C512.15 474.4 511.75 475.6 512.416 478C513.083 480.8 512.683 481.6 510.416 482.267C508.416 482.8 507.616 484 507.616 486.8C507.616 489.333 506.95 490.667 505.616 490.667C504.416 490.667 503.616 491.867 503.616 493.867C503.616 495.6 502.683 497.467 501.483 497.867C500.15 498.4 499.75 499.6 500.283 501.333C500.816 503.067 500.283 504.4 498.416 505.6C496.683 506.667 495.616 508.667 495.616 510.933C495.616 513.333 494.95 514.667 493.616 514.667C492.416 514.667 491.616 515.867 491.616 517.867C491.616 520 490.683 521.467 488.816 522C486.55 522.8 486.416 523.2 487.883 524.933C489.216 526.667 489.083 527.333 486.55 529.333C484.816 530.8 483.616 533.2 483.616 535.333C483.616 538 483.083 538.8 481.616 538.133C480.15 537.6 479.616 538.4 479.616 541.333C479.616 543.867 478.816 545.467 477.083 546C475.35 546.533 474.816 547.6 475.216 549.867C475.75 552.267 474.95 553.6 471.75 555.467C469.216 557.067 467.616 558.933 467.616 560.8C467.616 562.4 466.683 564.4 465.616 565.333C464.416 566.267 463.616 569.2 463.616 572.267C463.616 575.6 462.95 577.733 461.616 578.133C460.55 578.667 459.616 580.4 459.616 582.133C459.616 583.867 459.083 585.333 458.283 585.333C457.616 585.333 455.75 586.667 454.016 588.4C451.75 590.667 451.083 592.667 451.35 596.4C451.616 600 451.216 601.6 449.75 602.133C448.55 602.533 447.616 604.267 447.616 606C447.616 607.867 446.683 609.333 444.95 609.733C443.35 610.133 442.283 611.6 442.283 613.333C442.283 614.8 440.816 617.467 438.95 619.2C437.083 621.067 435.616 623.733 435.616 625.867C435.616 628.4 434.95 629.333 433.083 629.333C431.083 629.333 430.683 630.4 430.683 634.533C430.683 638.533 429.75 640.533 427.083 643.067C425.216 644.8 423.616 647.6 423.616 649.333C423.616 651.067 422.55 652.533 420.95 652.933C419.216 653.333 418.283 654.8 418.283 656.8C418.283 658.4 417.75 660.267 416.95 660.667C416.283 661.067 415.616 663.733 415.616 666.533C415.616 670.933 414.95 672.133 410.95 674.8C408.15 676.667 406.283 679.067 406.283 680.667C406.283 682.267 404.683 684.933 402.55 686.667C399.483 689.2 398.95 690.667 399.483 694.933C399.883 699.467 399.483 700.267 396.95 700.933C394.95 701.467 394.283 702.4 394.683 704.267C395.083 705.6 394.55 707.6 393.483 708.533C392.416 709.6 391.616 712 391.616 713.867C391.616 716.4 390.95 717.333 388.95 717.333C387.083 717.333 386.283 718.267 386.283 720.533C386.283 722.267 385.35 724.133 384.15 724.533C382.816 725.067 382.283 726.4 382.683 728C383.083 729.333 382.55 731.2 381.483 732.133C380.416 732.933 379.616 735.333 379.616 737.467C379.616 740.4 378.95 741.333 376.95 741.333C374.95 741.333 374.283 742.267 374.283 744.667C374.283 746.8 373.483 748 372.283 748C371.216 748 370.283 748.933 370.283 750C370.283 750.933 369.216 752.4 368.016 753.067C366.15 754.267 366.55 755.067 371.083 759.2L376.283 764H437.616C471.35 764 640.55 764.933 813.616 766C986.683 766.933 1128.55 767.333 1128.95 766.667C1129.35 766.133 1130.82 765.467 1132.15 765.2C1133.48 764.933 1135.35 763.6 1136.15 762.267C1137.35 760.4 1137.08 759.467 1135.35 758.133C1134.02 757.2 1132.95 755.067 1132.95 753.6C1132.95 752.133 1130.82 749.067 1128.15 746.933C1124.55 744 1123.62 742.267 1124.15 740.267C1124.68 738.533 1124.28 737.333 1122.95 736.8C1121.75 736.4 1120.95 734.4 1120.95 731.467C1120.95 727.733 1120.02 726 1116.28 723.067C1112.82 720.4 1111.88 718.667 1112.42 716.533C1112.95 714.667 1112.42 713.467 1111.08 712.933C1109.88 712.4 1108.95 710.667 1108.95 708.8C1108.95 706.667 1108.02 705.467 1106.15 704.933C1103.62 704.267 1103.35 703.467 1104.02 699.333C1104.68 695.2 1104.15 694 1100.15 690C1097.62 687.467 1094.95 685.333 1094.28 685.333C1093.48 685.333 1092.95 683.867 1092.95 682.133C1092.95 680.267 1091.75 678 1090.15 676.8C1087.62 675.067 1087.35 673.867 1087.88 668.133C1088.28 664.4 1088.02 661.333 1087.48 661.333C1086.95 661.333 1085.35 659.6 1084.15 657.333C1082.82 655.2 1080.55 653.333 1079.08 653.067C1075.88 652.667 1074.55 647.467 1076.95 644.667C1078.15 643.2 1077.88 642.533 1075.75 641.333C1073.62 640.267 1072.95 638.533 1072.95 634.667C1072.95 630.267 1072.28 628.933 1068.28 625.867C1065.08 623.467 1063.88 621.867 1064.82 620.933C1066.28 619.467 1060.82 613.333 1058.15 613.333C1057.48 613.333 1056.95 610.667 1056.95 607.467C1056.95 603.333 1056.28 601.333 1054.82 600.8C1053.22 600.267 1052.95 599.067 1053.48 596.533C1054.15 593.867 1053.88 592.933 1051.62 592.4C1050.15 592 1048.95 591.2 1048.95 590.533C1048.95 589.867 1048.02 589.333 1046.95 589.333C1045.62 589.333 1044.95 588 1044.95 585.333C1044.95 583.067 1044.02 580.933 1042.68 580.267C1041.08 579.333 1040.68 577.867 1041.35 574.267C1041.88 570.933 1041.48 569.333 1040.15 568.8C1039.08 568.4 1038.28 566.8 1038.28 565.067C1038.28 562.267 1032.55 556 1030.02 556C1029.35 556 1029.08 554.933 1029.62 553.467C1030.02 552.133 1029.48 550.267 1028.28 549.333C1027.08 548.4 1026.28 545.467 1026.28 542.4C1026.28 538.267 1025.75 536.933 1023.62 536.4C1021.88 536 1020.95 534.533 1020.95 532.533C1020.95 530.8 1020.42 529.333 1019.62 529.333C1018.95 529.333 1018.28 528.133 1018.28 526.667C1018.28 525.2 1017.35 524 1016.28 524C1014.82 524 1014.28 522.533 1014.28 518.533C1014.28 514.267 1013.75 512.933 1011.62 512.4C1009.75 511.867 1008.95 510.533 1008.95 507.867C1008.95 505.733 1008.42 504 1007.62 504C1006.95 504 1006.28 503.067 1006.28 502C1006.28 500.933 1005.35 500 1004.28 500C1003.08 500 1002.28 498.8 1002.28 496.8C1002.28 494.667 1001.35 493.333 999.483 492.933C997.483 492.4 996.816 491.467 997.483 489.867C998.016 488.4 997.35 486.4 995.483 484.533C993.35 482.267 992.816 480.4 993.35 477.6C994.15 473.6 991.35 469.333 987.883 469.333C986.95 469.333 986.283 467.467 986.283 465.333C986.283 462.667 985.616 461.333 984.283 461.333C982.283 461.333 981.75 460 982.15 455.6C982.283 454.4 981.483 452.933 980.416 452.533C978.95 452 978.283 450 978.283 446.4C978.283 442.133 977.483 440.267 974.683 437.867C972.55 436.133 970.416 434.667 969.75 434.667C969.083 434.667 969.35 433.733 970.283 432.667C972.15 430.533 971.083 428 968.15 428C967.083 428 966.283 426.667 966.283 424.667C966.283 422.533 965.483 421.333 964.283 421.333C962.816 421.333 962.283 419.867 962.283 416C962.283 410.133 959.083 404 956.15 404C955.083 404 954.283 402.667 954.283 400.667C954.283 398.533 953.483 397.333 952.283 397.333C950.816 397.333 950.283 395.867 950.283 391.867C950.283 388.8 949.35 385.6 948.15 384.4C947.083 383.2 946.416 381.467 946.95 380.267C947.883 377.733 944.016 373.333 940.683 373.333C938.95 373.333 938.283 372.4 938.283 369.467C938.283 367.333 937.35 364.933 936.283 364C935.083 362.933 934.55 361.2 935.083 359.2C935.75 356.667 935.35 356 933.216 356C931.216 356 930.683 355.333 931.216 353.2C931.75 351.333 931.083 349.867 929.083 348.533C927.616 347.467 926.283 345.467 926.283 344.267C926.15 341.467 923.216 337.333 921.083 337.333C920.283 337.333 919.616 335.067 919.616 331.6C919.616 327.467 918.95 325.6 916.95 324.267C915.483 323.333 914.283 321.467 914.283 320.133C914.283 318.667 913.75 317.067 912.95 316.667C912.283 316.267 911.616 314.267 911.616 312.267C911.616 309.6 910.283 307.867 906.95 305.6C903.083 303.2 902.283 301.867 902.283 298C902.283 295.6 901.75 293.067 900.95 292.667C900.283 292.267 899.616 290.267 899.616 288.267C899.616 285.6 898.283 283.867 895.083 281.733C891.616 279.467 890.683 278.133 891.216 276.133C891.616 274.267 891.216 273.067 889.75 272.533C888.283 272 887.616 270 887.616 265.867C887.616 261.6 887.083 260 885.616 260C884.416 260 883.616 258.8 883.616 256.667C883.616 254.8 883.083 253.333 882.283 253.333C881.616 253.333 880.95 252.4 880.95 251.2C880.95 250 879.75 248.8 878.283 248.4C876.55 248 875.616 246.533 875.616 244.667C875.616 242.933 874.683 241.333 873.616 240.8C872.416 240.4 871.616 238.267 871.616 235.333C871.616 232.667 870.683 229.6 869.616 228.533C868.55 227.333 867.616 225.467 867.616 224.133C867.616 221.6 862.95 216 860.95 216C860.15 216 859.616 214.533 859.616 212.8C859.616 211.067 858.683 209.333 857.616 208.8C856.283 208.4 855.616 206.267 855.616 202.8C855.616 199.867 855.083 197.067 854.283 196.667C853.616 196.267 852.95 194.267 852.95 192.267C852.95 189.6 851.883 188.133 848.55 186.533C845.216 184.933 844.283 183.6 844.283 180.667C844.15 178.533 843.483 176.667 842.55 176.267C841.616 176 840.95 174.267 840.95 172.4C840.95 170.267 840.016 168.8 838.283 168.4C836.55 168 835.616 166.533 835.616 164.667C835.616 162.933 834.683 161.2 833.483 160.8C832.283 160.267 831.616 158.8 831.883 156.8C832.15 154.533 831.083 152.533 828.283 150.133C825.083 147.467 824.416 145.867 824.683 142.267C825.083 138.533 824.55 137.6 822.15 136.933C819.883 136.267 819.483 135.467 820.15 132.667C820.816 130.267 820.416 129.067 818.95 128.533C817.883 128 816.95 126.267 816.95 124.533C816.95 120.533 813.216 116 809.75 116C807.616 116 807.35 115.333 808.016 110.533C808.55 106.667 808.15 104.933 806.816 104.4C805.75 104 804.95 102.267 804.95 100.533C804.95 96.5333 801.216 92 797.883 92C795.883 92 795.483 91.3333 796.15 88.6666C796.816 86.2667 796.416 85.0667 794.95 84.5333C793.616 84 792.95 81.8666 792.95 77.8666C792.95 73.6 792.416 72 790.95 72C789.883 72 788.95 70.8 788.95 69.3333C788.95 65.7333 785.083 60 782.816 60C781.75 60 780.95 58.6666 780.95 56.8C780.95 55.0667 780.016 53.3333 778.95 52.8C777.616 52.4 776.95 50.2667 776.95 46.8C776.95 43.2 776.283 41.3333 774.816 40.8C773.35 40.2667 772.816 38.9333 773.216 36.6666C773.883 33.3333 771.75 30.5333 767.35 28.9333C765.616 28.2667 764.95 26.6666 764.95 22.8C764.95 19.2 764.283 17.3333 762.816 16.8C760.95 16.1333 760.683 14.5333 761.35 8L762.016 0H757.883C754.55 0 753.216 0.799988 752.016 3.59998Z" fill="black"/>
<path d="M269.616 957.333C265.216 961.867 260.816 966.4 260.016 967.333C259.083 968.4 258.283 972.133 258.283 975.867C258.283 981.2 257.75 982.8 255.616 984C254.016 984.8 252.95 986.8 252.95 988.667C252.95 990.533 252.416 992 251.616 992C250.95 992 248.283 994.133 245.616 996.667C241.883 1000.53 240.95 1002.4 240.95 1006.53C240.95 1009.47 240.283 1012 239.35 1012.27C238.283 1012.67 237.883 1014.93 238.15 1018.53C238.416 1022.53 238.016 1024 236.95 1023.33C234.95 1022.13 228.95 1028.67 228.95 1032.13C228.95 1033.6 228.15 1035.07 227.083 1035.47C225.75 1036 225.483 1037.6 225.883 1041.47C226.55 1045.73 226.283 1046.67 224.416 1046.67C222.95 1046.67 222.283 1047.87 222.283 1050.67C222.283 1053.33 221.483 1055.07 220.016 1055.6C215.35 1057.2 212.95 1060.27 213.75 1063.47C214.283 1065.73 213.883 1066.93 212.416 1067.47C211.216 1067.87 210.283 1069.73 210.283 1071.6C210.283 1073.73 209.35 1075.2 207.616 1075.6C205.483 1076.13 204.95 1077.47 204.95 1082.13C204.95 1085.47 204.283 1088 203.483 1088C201.216 1088 197.083 1093.73 196.95 1096.93C196.95 1098.8 196.15 1100 194.95 1100C193.483 1100 192.95 1101.6 192.95 1106C192.95 1110.53 192.416 1112 190.95 1112C189.483 1112 189.083 1112.93 189.75 1115.33C190.416 1118.13 190.15 1118.67 187.75 1118.67C185.616 1118.67 184.95 1119.47 184.95 1122.4C184.95 1125.07 183.75 1127.07 181.083 1129.07C177.616 1131.6 177.216 1132.53 177.883 1137.33C178.55 1142.13 178.283 1142.67 175.75 1142.67C173.35 1142.67 172.95 1143.47 172.95 1148.67C172.95 1152.13 172.283 1154.67 171.483 1154.67C168.816 1154.67 165.083 1160.53 165.883 1163.6C166.416 1166 166.016 1166.67 163.75 1166.67C161.35 1166.67 160.95 1167.47 160.95 1172.67C160.95 1177.07 160.416 1178.67 158.95 1178.67C157.75 1178.67 156.95 1179.87 156.95 1181.87C156.95 1183.73 155.35 1186.27 152.95 1188.13C150.283 1190.27 148.95 1192.53 148.95 1195.07C148.95 1197.07 148.016 1199.07 146.95 1199.47C145.883 1200 144.95 1201.6 144.95 1203.33C144.95 1205.07 144.016 1206.67 142.95 1207.2C141.883 1207.6 140.95 1209.47 140.95 1211.33C140.95 1213.47 140.15 1214.67 138.95 1214.67C137.75 1214.67 136.95 1215.87 136.95 1217.87C136.95 1219.6 136.016 1221.73 134.95 1222.67C133.883 1223.6 132.95 1225.73 132.95 1227.47C132.95 1229.47 132.15 1230.67 130.95 1230.67C129.483 1230.67 128.95 1232.13 128.95 1236C128.95 1239.6 128.283 1241.73 126.95 1242.13C125.75 1242.67 124.95 1244.67 124.95 1246.8C124.95 1249.47 124.283 1250.67 122.816 1250.67C119.75 1250.67 117.083 1254.53 116.95 1258.93C116.95 1261.33 116.283 1262.67 114.95 1262.67C113.75 1262.67 112.95 1263.87 112.95 1266C112.95 1267.87 111.883 1269.87 110.283 1270.67C108.283 1271.73 107.616 1273.47 107.616 1277.33C107.616 1280.27 107.083 1282.67 106.283 1282.67C105.616 1282.67 104.95 1284 104.95 1285.6C104.95 1287.47 103.083 1290.13 100.283 1292.4C97.083 1294.93 95.7497 1296.93 96.1497 1298.4C96.5497 1299.6 96.0164 1302.4 94.9497 1304.53C93.883 1306.53 92.9497 1309.47 92.9497 1310.8C92.9497 1312.13 92.1497 1313.73 91.083 1314.27C90.0164 1314.8 88.9497 1316.8 88.683 1318.67C88.5497 1320.53 87.3497 1322 86.283 1322C85.2164 1322 84.1497 1323.47 83.883 1325.33C83.6164 1327.2 82.8164 1329.2 82.1497 1329.87C81.483 1330.67 80.9497 1333.47 80.9497 1336.27C80.9497 1339.6 80.283 1341.73 78.9497 1342.13C77.883 1342.67 76.9497 1344.4 76.9497 1346.13C76.9497 1348 76.0164 1349.73 74.683 1350.27C71.3497 1351.6 69.083 1354.8 68.9497 1358.4C68.9497 1360.4 68.0164 1361.87 66.4164 1362.27C64.4164 1362.8 63.883 1364 64.1497 1368.27C64.283 1372.53 63.7497 1373.87 62.0164 1374.4C60.683 1374.67 59.6164 1376.13 59.6164 1377.6C59.6164 1378.93 57.883 1381.87 55.6164 1384C53.483 1386.13 51.6164 1389.07 51.6164 1390.67C51.6164 1392.27 50.683 1393.33 49.483 1393.33C47.7497 1393.33 47.483 1394.27 48.283 1398.67C48.9497 1402.93 48.683 1404.13 47.083 1404.8C45.883 1405.33 44.9497 1407.2 44.9497 1409.47C44.9497 1412.4 44.0164 1413.6 40.1497 1415.47C36.283 1417.33 35.6164 1418.27 36.1497 1420.8C36.683 1422.53 36.1497 1424.67 34.9497 1425.87C33.883 1426.93 32.9497 1429.6 32.9497 1431.87C32.9497 1434.53 32.0164 1436.53 30.283 1437.6C28.8164 1438.53 27.6164 1440.67 27.6164 1442.27C27.6164 1444 26.8164 1445.33 26.0164 1445.33C24.1497 1445.33 20.9497 1451.33 20.9497 1454.8C20.9497 1456 19.7497 1457.33 18.283 1457.73C16.0164 1458.27 15.6164 1459.6 15.6164 1465.73C15.6164 1472 15.083 1473.33 12.1497 1475.47C4.9497 1480.67 3.61637 1482.4 3.61637 1485.87C3.61637 1487.87 2.81637 1489.33 1.88304 1489.33C0.683037 1489.33 0.0163702 1491.2 0.0163702 1495.07C-0.116963 1499.47 0.549703 1501.2 2.5497 1502.53C4.68304 1503.87 101.35 1504.67 454.683 1506.8L904.15 1509.33L907.216 1506.4C909.35 1504.4 909.883 1503.07 908.95 1502.13C908.283 1501.47 907.616 1499.47 907.616 1497.73C907.616 1496 907.083 1494.67 906.283 1494.67C905.616 1494.67 904.95 1493.87 904.95 1492.8C904.95 1491.73 904.016 1490.67 902.95 1490.13C901.883 1489.73 900.95 1488 900.95 1486.4C900.95 1484.53 899.216 1481.87 896.95 1480C894.816 1478.13 892.95 1475.6 892.95 1474.4C892.95 1471.87 888.416 1466.67 886.283 1466.67C885.616 1466.67 884.95 1465.07 884.95 1462.93C884.816 1460.67 883.483 1458.13 880.95 1456C878.683 1454.27 876.95 1451.6 876.95 1450.13C876.95 1448.8 875.083 1445.87 872.816 1443.87C870.016 1441.33 868.816 1439.33 869.216 1437.6C869.75 1435.87 868.55 1434.13 865.35 1432C862.15 1429.87 860.95 1428.13 861.35 1426.4C861.883 1424.67 860.55 1422.8 857.483 1420.27C854.683 1418.13 852.95 1415.47 852.95 1413.6C852.95 1411.73 852.15 1410.67 850.816 1410.67C849.216 1410.67 848.816 1409.73 849.35 1407.2C849.75 1405.07 849.35 1403.47 848.15 1403.07C847.083 1402.67 846.283 1401.07 846.283 1399.33C846.283 1397.6 844.016 1394.27 840.283 1390.93C836.816 1387.73 834.283 1384.27 834.283 1382.67C834.283 1379.6 830.95 1375.6 827.083 1374.13C825.483 1373.6 824.816 1372.4 825.35 1370.53C825.75 1368.93 825.35 1367.6 824.15 1367.07C823.083 1366.67 822.283 1364.8 822.283 1362.67C822.283 1359.07 819.616 1355.73 815.216 1354.27C813.483 1353.6 813.083 1352.53 813.616 1350.8C814.416 1348 805.483 1337.33 802.416 1337.33C801.216 1337.33 800.95 1336.27 801.35 1334.53C801.75 1332.93 801.35 1331.6 800.15 1331.07C799.083 1330.67 798.283 1328.67 798.283 1326.53C798.283 1323.87 796.95 1321.87 793.616 1319.2C790.416 1316.8 789.216 1315.2 790.15 1314.27C791.616 1312.8 786.15 1306.67 783.483 1306.67C782.816 1306.67 782.283 1305.07 782.283 1302.93C782.15 1298.93 780.016 1295.6 776.683 1294.27C775.35 1293.87 774.283 1292.53 774.283 1291.33C774.283 1290.27 773.35 1289.33 772.283 1289.33C770.816 1289.33 770.283 1287.87 770.283 1283.87C770.283 1279.6 769.75 1278.27 767.616 1277.73C764.55 1276.93 764.283 1275.87 766.416 1273.73C767.35 1272.8 766.816 1271.33 764.283 1268.8C762.416 1266.93 760.283 1265.33 759.616 1265.33C758.816 1265.33 758.283 1264 758.283 1262.4C758.283 1260.67 755.883 1257.2 752.283 1253.73C748.683 1250.4 746.283 1246.93 746.283 1245.2C746.283 1242.4 741.75 1237.33 739.216 1237.33C738.55 1237.33 738.283 1235.73 738.683 1233.87C739.083 1231.2 738.683 1230.13 736.816 1229.73C735.216 1229.33 734.283 1227.87 734.283 1226C734.283 1224 732.15 1220.93 728.283 1217.6C724.283 1214.13 722.283 1211.2 722.283 1209.2C722.283 1207.33 720.816 1204.93 718.95 1203.47C716.95 1202 715.616 1199.6 715.616 1197.73C715.616 1195.6 714.683 1194.13 712.95 1193.73C711.216 1193.33 710.283 1191.87 710.283 1190C710.283 1188.27 709.35 1186.53 708.15 1186.13C706.683 1185.6 706.283 1184.4 706.816 1182.13C707.483 1179.6 706.283 1177.87 700.95 1173.07C696.283 1168.8 694.55 1166.27 695.083 1164.8C695.616 1163.33 695.216 1162.67 693.75 1162.67C692.283 1162.67 691.616 1161.47 691.616 1158.93C691.483 1155.33 683.75 1145.33 680.95 1145.33C680.15 1145.33 679.616 1143.87 679.616 1142C679.616 1139.87 678.816 1138.67 677.616 1138.67C676.283 1138.67 675.616 1137.33 675.616 1134.93C675.616 1131.47 671.75 1126.67 668.95 1126.67C668.15 1126.67 667.616 1124.93 667.616 1122.8C667.616 1119.87 666.416 1117.87 662.95 1115.2C659.75 1112.8 658.416 1110.93 658.95 1109.33C659.35 1107.87 658.816 1106.67 657.616 1106.13C656.55 1105.73 655.616 1103.73 655.616 1101.73C655.616 1099.2 654.283 1096.93 651.616 1094.8C648.683 1092.53 647.75 1090.93 648.416 1089.07C648.95 1087.2 648.416 1086.27 646.416 1085.73C644.55 1085.33 643.616 1084 643.616 1081.87C643.616 1079.73 640.95 1075.87 635.616 1070.53C631.216 1066.13 627.616 1061.73 627.616 1060.8C627.616 1059.73 626.683 1058.27 625.616 1057.33C624.55 1056.4 623.883 1054.53 624.283 1052.8C624.816 1050.67 624.016 1049.47 620.683 1047.87C617.483 1046.4 616.15 1044.8 615.883 1041.87C615.616 1039.73 614.55 1037.6 613.616 1037.07C612.683 1036.4 612.15 1034.93 612.55 1033.6C612.95 1031.87 611.216 1029.33 606.416 1025.33C600.95 1020.67 599.883 1018.93 600.416 1016.4C601.083 1014.13 600.683 1013.33 599.083 1013.33C597.75 1013.33 596.95 1012.13 596.95 1010.27C596.95 1008.53 595.216 1005.87 592.95 1004C590.416 1001.87 589.083 999.333 588.95 996.933C588.95 994.667 588.283 993.333 586.95 993.333C585.75 993.333 584.95 992.133 584.95 990.267C584.95 987.2 576.816 977.333 574.416 977.333C573.616 977.333 572.95 975.867 572.95 974C572.95 972.133 571.883 970.133 570.283 969.333C568.816 968.533 567.616 966.533 567.616 964.667C567.616 962.933 567.083 961.067 566.283 960.667C565.616 960.267 564.95 958.533 564.95 956.933C564.95 950 569.75 950.133 418.283 949.6L277.616 949.067L269.616 957.333Z" fill="black"/>
<path d="M792.017 953.867C792.55 955.2 792.95 957.6 792.95 959.2C792.95 962.133 803.883 974.667 806.417 974.667C807.083 974.667 807.617 977.333 807.617 980.667C807.617 985.067 808.15 986.667 809.617 986.667C810.817 986.667 811.617 987.867 811.617 989.6C811.617 992.8 819.75 1002.67 822.15 1002.67C822.95 1002.67 823.617 1004.13 823.617 1006C823.617 1007.87 824.683 1009.87 826.417 1010.8C828.15 1011.73 828.95 1013.07 828.55 1014.67C828.15 1016.13 828.683 1017.47 829.75 1017.87C830.817 1018.27 831.617 1019.47 831.617 1020.67C831.617 1021.73 832.55 1022.67 833.617 1022.67C834.683 1022.67 835.617 1023.87 835.617 1025.33C835.617 1028.93 839.483 1034.67 841.75 1034.67C842.817 1034.67 843.617 1036 843.617 1037.6C843.75 1041.07 847.217 1045.73 850.817 1047.07C852.817 1047.87 852.95 1048.4 851.617 1050.13C850.15 1051.73 850.283 1052.4 852.683 1054.13C854.417 1055.2 855.617 1057.6 855.617 1059.47C855.617 1061.47 856.417 1062.67 857.617 1062.67C858.817 1062.67 859.617 1063.87 859.617 1066C859.617 1069.6 863.217 1074.67 865.883 1074.67C866.817 1074.67 867.617 1076.13 867.617 1078C867.617 1081.73 871.217 1086.67 874.017 1086.67C875.483 1086.67 875.75 1087.73 875.217 1090.53C874.55 1093.73 874.95 1094.53 877.35 1095.2C878.817 1095.6 879.75 1096.27 879.217 1096.8C878.817 1097.33 880.283 1098.8 882.683 1100C886.417 1102 886.95 1103.07 886.95 1107.47C886.817 1110.4 887.617 1113.2 888.55 1113.73C889.483 1114.27 890.283 1116.53 890.283 1118.67C890.283 1120.93 890.95 1122.67 892.017 1122.67C892.817 1122.67 894.817 1124.53 896.283 1126.67C897.75 1128.8 899.75 1130.67 900.683 1130.67C901.483 1130.67 902.283 1132.13 902.283 1134C902.283 1136.13 903.883 1138.53 906.95 1140.93C909.883 1143.33 911.35 1145.47 910.95 1146.8C910.55 1148.13 911.083 1149.33 912.283 1149.87C913.483 1150.27 914.283 1152.27 914.283 1154.53C914.283 1157.33 915.083 1158.53 917.083 1159.07C918.95 1159.6 919.617 1160.67 919.35 1162.53C919.083 1164.27 920.95 1167.07 924.95 1170.8C929.217 1174.8 930.817 1177.2 930.55 1179.47C930.283 1181.47 930.95 1182.67 932.95 1183.33C934.95 1184 935.483 1184.93 934.95 1186.67C934.15 1189.2 938.283 1194.67 940.95 1194.67C941.75 1194.67 942.283 1196.4 942.283 1198.67C942.283 1201.2 942.95 1202.67 944.15 1202.67C946.95 1202.67 948.15 1205.07 946.417 1207.2C945.35 1208.4 946.817 1210.4 952.283 1215.33C957.883 1220.4 959.217 1222.27 958.017 1223.73C956.817 1225.07 957.217 1225.6 959.35 1226.27C961.483 1226.8 962.283 1228 962.283 1230.67C962.283 1232.8 963.217 1234.67 964.283 1235.2C965.35 1235.6 966.283 1237.33 966.283 1238.93C966.283 1240.8 968.017 1243.47 970.283 1245.33C972.55 1247.2 974.283 1249.87 974.283 1251.6C974.283 1253.33 974.95 1254.67 975.617 1254.67C976.417 1254.67 976.95 1255.47 976.95 1256.53C976.95 1257.6 978.15 1258.93 979.617 1259.33C981.483 1260 982.15 1260.93 981.617 1262.67C981.083 1264.4 982.817 1266.8 987.75 1271.2C994.15 1276.93 994.55 1277.73 993.883 1282C993.217 1286 993.483 1286.67 995.75 1286.67C997.883 1286.67 998.417 1287.47 998.017 1289.73C997.617 1292.93 1004.82 1302.67 1007.62 1302.67C1008.28 1302.67 1008.95 1304.4 1008.95 1306.67C1008.95 1309.73 1009.48 1310.67 1011.62 1310.67C1013.62 1310.67 1014.28 1311.6 1014.28 1314.13C1014.28 1316 1015.08 1318.4 1016.15 1319.47C1017.22 1320.4 1017.75 1322.4 1017.48 1323.6C1017.08 1325.2 1018.42 1327.07 1021.62 1329.2C1024.68 1331.33 1026.28 1333.33 1026.28 1335.47C1026.28 1337.2 1026.95 1338.67 1027.62 1338.67C1028.42 1338.67 1028.95 1339.6 1028.95 1340.53C1028.95 1341.6 1031.08 1344.13 1033.62 1346.13C1036.15 1348 1038.28 1350.67 1038.28 1352C1038.28 1353.33 1039.08 1355.07 1040.15 1355.87C1041.22 1356.8 1041.75 1358.67 1041.35 1360C1040.82 1361.87 1041.35 1362.67 1042.82 1362.67C1044.28 1362.67 1044.95 1363.87 1044.95 1366.13C1044.95 1368.67 1046.82 1371.33 1050.95 1375.2C1054.55 1378.53 1056.95 1382 1056.95 1383.73C1056.95 1385.47 1057.75 1386.67 1058.95 1386.67C1060.28 1386.67 1060.95 1388 1060.95 1390.27C1061.08 1394.13 1064.95 1400 1067.48 1400C1068.28 1400 1068.95 1401.47 1068.95 1403.2C1068.95 1404.93 1069.88 1406.67 1070.95 1407.2C1072.02 1407.6 1072.95 1409.33 1072.95 1411.2C1072.95 1412.93 1073.88 1414.8 1075.08 1415.2C1076.55 1415.73 1077.08 1417.07 1076.68 1419.2C1076.15 1421.73 1077.22 1423.33 1081.75 1426.8C1085.35 1429.6 1087.48 1432.4 1087.62 1434.27C1087.62 1436 1089.48 1438.8 1092.28 1440.93C1094.82 1442.93 1096.95 1445.87 1096.95 1447.33C1097.08 1450.93 1100.02 1454.67 1102.82 1454.67C1104.28 1454.67 1104.95 1455.87 1104.95 1458.53C1104.95 1460.8 1105.75 1462.67 1107.08 1463.2C1108.55 1463.73 1108.95 1464.93 1108.42 1467.07C1107.62 1470.27 1110.02 1473.33 1114.68 1475.07C1116.15 1475.6 1116.95 1477.33 1116.95 1480C1116.95 1482.67 1117.62 1484 1118.95 1484C1120.15 1484 1120.95 1485.2 1120.95 1487.33C1120.95 1489.2 1121.62 1490.67 1122.28 1490.67C1123.08 1490.67 1123.62 1492.4 1123.62 1494.4C1123.62 1498.27 1127.08 1502.67 1130.02 1502.67C1130.95 1502.67 1131.62 1503.47 1131.62 1504.4C1131.62 1505.47 1132.68 1507.2 1134.02 1508.4C1136.15 1510.27 1154.02 1510.67 1314.02 1511.47C1448.28 1512.13 1491.62 1512 1491.62 1510.93C1491.62 1510 1492.55 1509.33 1493.62 1509.33C1496.15 1509.33 1496.55 1497.33 1494.02 1497.33C1490.55 1497.2 1486.02 1492.13 1486.68 1489.2C1487.08 1487.6 1486.68 1486.27 1485.48 1485.73C1484.42 1485.33 1483.62 1483.73 1483.62 1482C1483.62 1480.13 1482.68 1478.67 1480.95 1478.27C1478.68 1477.73 1478.28 1476.4 1478.28 1470.13C1478.28 1463.47 1477.75 1462.27 1473.75 1458C1471.22 1455.47 1468.55 1453.33 1467.88 1453.33C1467.22 1453.33 1466.95 1451.87 1467.22 1450.13C1467.75 1447.73 1467.22 1446.8 1464.95 1446.27C1462.42 1445.6 1462.02 1444.8 1462.55 1440.13C1462.82 1436.53 1462.42 1434.53 1461.35 1434.13C1460.42 1433.73 1459.62 1431.73 1459.62 1429.6C1459.62 1426.53 1458.68 1425.2 1454.95 1423.2C1451.08 1421.2 1450.28 1420.13 1450.95 1417.6C1451.48 1415.6 1450.95 1414.4 1449.62 1413.87C1448.15 1413.2 1447.62 1411.07 1447.62 1406C1447.62 1399.47 1447.22 1398.67 1441.62 1393.47C1436.42 1388.67 1435.62 1387.2 1435.62 1382.67C1435.62 1378.8 1435.08 1377.33 1433.62 1377.33C1432.15 1377.33 1431.62 1375.87 1431.62 1371.6C1431.62 1366.93 1430.95 1365.47 1427.62 1362.8C1425.22 1360.93 1423.62 1358.4 1423.62 1356.53C1423.62 1354.53 1422.82 1353.33 1421.62 1353.33C1420.28 1353.33 1419.62 1352 1419.62 1349.47C1419.62 1347.2 1418.82 1345.33 1417.48 1344.8C1415.88 1344.13 1415.48 1342.8 1416.02 1339.6C1416.42 1336.27 1415.88 1334.67 1413.35 1332.4C1411.62 1330.67 1409.62 1329.33 1408.82 1329.33C1408.15 1329.33 1407.62 1327.6 1407.62 1325.47C1407.62 1323.2 1406.82 1321.33 1405.48 1320.8C1404.15 1320.27 1403.75 1319.07 1404.28 1317.47C1404.68 1315.87 1404.28 1314.67 1402.95 1314.13C1401.62 1313.73 1400.95 1311.6 1400.95 1308.13C1400.95 1303.6 1400.15 1302.13 1396.28 1299.07C1393.35 1296.67 1391.88 1294.53 1392.28 1293.2C1392.68 1291.87 1392.15 1290.67 1390.95 1290.13C1389.75 1289.73 1388.95 1287.73 1388.95 1285.33C1388.95 1282.27 1388.42 1281.33 1386.28 1281.33C1384.02 1281.33 1383.62 1280.4 1383.62 1275.6C1383.62 1271.2 1382.95 1269.47 1380.28 1267.47C1378.15 1265.87 1376.95 1263.6 1376.95 1261.2C1376.95 1258.27 1376.28 1257.33 1374.28 1257.33C1372.02 1257.33 1371.62 1256.4 1371.62 1251.47C1371.62 1247.33 1370.95 1245.33 1369.48 1244.8C1367.75 1244.13 1367.48 1242.8 1368.02 1239.33C1368.68 1235.2 1368.28 1234.27 1364.82 1231.73C1362.28 1229.73 1360.95 1227.73 1360.95 1225.2C1360.95 1222.8 1360.15 1221.47 1358.28 1220.93C1356.02 1220.4 1355.75 1219.47 1356.42 1216.8C1357.08 1214.13 1356.68 1213.33 1355.08 1213.33C1353.48 1213.33 1352.95 1212 1352.95 1207.6C1352.95 1202.67 1352.28 1201.47 1346.95 1196.67C1342.15 1192.53 1340.95 1190.53 1340.95 1187.2C1340.95 1184.67 1340.15 1182.67 1338.95 1182.13C1337.75 1181.73 1336.95 1179.6 1336.95 1176.67C1336.95 1171.33 1333.62 1165.33 1330.82 1165.33C1329.75 1165.33 1328.95 1164 1328.95 1162.13C1328.95 1160.4 1328.02 1158.67 1326.95 1158.13C1325.75 1157.73 1324.95 1155.73 1324.95 1153.47C1324.95 1151.2 1324.15 1149.33 1322.82 1148.8C1321.08 1148.13 1320.82 1146.8 1321.48 1142.67C1322.28 1137.87 1322.02 1137.33 1319.62 1137.33C1317.62 1137.33 1316.95 1136.4 1316.95 1133.73C1316.95 1131.47 1315.48 1128.93 1312.82 1126.53C1309.35 1123.33 1308.68 1122.13 1309.35 1118.8C1310.02 1115.6 1309.62 1114.4 1307.75 1113.33C1306.02 1112.53 1305.48 1111.07 1305.88 1109.33C1306.42 1107.2 1305.88 1106.27 1303.75 1105.73C1302.15 1105.33 1300.95 1104 1300.95 1102.53C1300.95 1098.8 1298.02 1093.33 1296.02 1093.33C1294.82 1093.33 1294.28 1091.6 1294.28 1087.87C1294.28 1083.6 1293.75 1082.27 1291.62 1081.73C1289.75 1081.2 1288.95 1079.87 1288.95 1077.33C1288.95 1075.33 1288.15 1072.93 1287.08 1072.13C1286.02 1071.2 1285.48 1069.6 1285.75 1068.27C1286.15 1066.8 1284.68 1064.93 1281.62 1062.93C1277.62 1060.4 1276.95 1059.2 1276.95 1054.8C1276.95 1052 1276.15 1048.93 1275.08 1048.13C1274.02 1047.2 1273.48 1045.33 1273.88 1044C1274.42 1042.13 1273.88 1041.33 1272.42 1041.33C1270.95 1041.33 1270.28 1040.13 1270.28 1037.33C1270.28 1034.27 1269.62 1033.33 1267.75 1033.33C1265.88 1033.33 1265.48 1032.53 1265.88 1030.27C1266.28 1028.4 1265.62 1026.4 1264.42 1025.47C1263.22 1024.4 1262.28 1022.27 1262.28 1020.53C1262.28 1018.53 1261.48 1017.33 1260.28 1017.33C1258.95 1017.33 1258.28 1016 1258.28 1013.47C1258.28 1011.33 1257.48 1009.33 1256.28 1008.8C1255.22 1008.4 1254.28 1007.07 1254.28 1005.73C1254.15 1002.93 1249.88 997.333 1247.75 997.333C1246.95 997.333 1246.28 994.8 1246.28 991.467C1246.28 987.467 1245.62 985.333 1244.28 984.8C1242.95 984.4 1242.28 982.267 1242.28 978.933C1242.28 974.533 1241.22 972.8 1234.28 965.6C1228.68 959.867 1225.22 957.333 1222.95 957.333C1220.82 957.333 1219.62 956.533 1219.62 955.333C1219.62 953.6 1211.75 953.333 1156.68 953.333C1122.02 953.333 1025.62 952.933 942.417 952.4C798.817 951.6 791.217 951.733 792.017 953.867Z" fill="black"/>
</svg>
